<?xml version="1.0" encoding="utf-8"?><svg viewBox="0 0 381 68" xmlns="http://www.w3.org/2000/svg" xmlns:xlink="http://www.w3.org/1999/xlink"><style>:root>svg{display:none}:root>svg:target{display:block}</style><svg fill="none" viewBox="0 0 320 68" id="bottle" xmlns="http://www.w3.org/2000/svg"><path fill-rule="evenodd" clip-rule="evenodd" d="M-18.966 58.795c1.091 3.725 2.385 5.959 4.77 7.413 2.384 1.454 5.86 2.129 13.216 2.386 7.357.257 59.593.098 111.6-.026 20.008-.124 48.786-.212 65.034-.684 16.248-.472 19.967-1.33 23.766-2.832 3.8-1.502 7.68-3.648 10.873-5.343 3.193-1.694 5.699-2.936 9.418-3.834 3.718-.897 8.649-1.45 18.471-2.555 9.822-1.105 24.535-2.762 35.69-4.168 11.156-1.405 18.755-2.559 22.877-3.14 4.123-.581 4.77-.591 5.255.126.485.717.808 2.16 1.617 2.712.808.551 2.101.212 2.829-.2.727-.413 4.032-.899 5.042-.712 1.011.187 2.523 1.046 3.774 1.108 4.981.247 4.981-30.382 0-30.135-1.251.061-2.763.92-3.774 1.107-1.01.187-4.315-.298-5.042-.71-.728-.413-2.021-.753-2.829-.201-.809.551-1.132 1.995-1.617 2.712-.485.716-1.132.707-5.255.126-4.122-.582-11.721-1.736-22.877-3.14-11.155-1.407-25.868-3.064-35.69-4.169-9.822-1.105-14.753-1.657-18.471-2.555-3.719-.898-6.224-2.14-9.418-3.834-3.193-1.695-7.073-3.841-10.873-5.343-3.799-1.502-7.518-2.36-23.766-2.832-16.248-.472-45.026-.56-65.034-.684C58.613-.735 6.377-.895-.98-.638c-7.356.257-10.832.932-13.216 2.386-2.385 1.454-3.679 3.688-4.77 7.413-3.41 11.64-3.41 37.994 0 49.634z" fill="#E4E4E4"/></svg><svg fill="none" viewBox="0 0 381 68" id="bottle-done" xmlns="http://www.w3.org/2000/svg"><g clip-path="url(#bclip0)"><mask id="ba" maskUnits="userSpaceOnUse" x="0" y="0" width="337" height="68"><path fill="#C4C4C4" d="M0 0h337v68H0z"/></mask><g mask="url(#ba)"><path fill-rule="evenodd" clip-rule="evenodd" d="M-18.966 58.795c1.091 3.725 2.385 5.959 4.77 7.413 2.384 1.454 5.86 2.129 13.216 2.386 7.357.257 59.593.098 111.6-.026 20.008-.124 48.786-.212 65.034-.684 16.248-.472 19.967-1.33 23.766-2.832 3.8-1.502 7.68-3.648 10.873-5.343 3.193-1.694 5.699-2.936 9.418-3.834 3.718-.897 8.649-1.45 18.471-2.555 9.822-1.105 24.535-2.762 35.69-4.168 11.156-1.405 18.755-2.559 22.877-3.14 4.123-.581 4.77-.591 5.255.126.485.717.808 2.16 1.617 2.712.808.551 2.101.212 2.829-.2.727-.413 4.032-.899 5.042-.712 1.011.187 2.523 1.046 3.774 1.108 4.981.247 4.981-30.382 0-30.135-1.251.061-2.763.92-3.774 1.107-1.01.187-4.315-.298-5.042-.71-.728-.413-2.021-.753-2.829-.201-.809.551-1.132 1.995-1.617 2.712-.485.716-1.132.707-5.255.126-4.122-.582-11.721-1.736-22.877-3.14-11.155-1.407-25.868-3.064-35.69-4.169-9.822-1.105-14.753-1.657-18.471-2.555-3.719-.898-6.224-2.14-9.418-3.834-3.193-1.695-7.073-3.841-10.873-5.343-3.799-1.502-7.518-2.36-23.766-2.832-16.248-.472-45.026-.56-65.034-.684C58.613-.735 6.377-.895-.98-.638c-7.356.257-10.832.932-13.216 2.386-2.385 1.454-3.679 3.688-4.77 7.413-3.41 11.64-3.41 37.994 0 49.634z" fill="url(#bpaint0_linear)"/></g></g><path stroke="#CBCCD0" d="M323.908 29.509l16-3m-12.047 7.481l16.279.02m-20.09 4.671l16.062 2.651"/><path d="M349.682 26.492a.904.904 0 01.775-.532l26.431-1.94a.759.759 0 01.519.137C378.239 24.786 381 27.51 381 36s-2.761 11.214-3.593 11.843a.759.759 0 01-.519.136l-26.431-1.94a.904.904 0 01-.775-.53C349.172 44.334 348 41.085 348 36s1.172-8.335 1.682-9.508z" fill="#4D25AB"/><path d="M377 43.5l-14.042.383L375.9 45.11l1.1-1.61zm-25 .5V28s2 3.097 2 8.258S352 44 352 44z" fill="#fff"/><defs><linearGradient id="bpaint0_linear" x1="-7.5" y1="16.002" x2="319" y2="16.002" gradientUnits="userSpaceOnUse"><stop stop-color="#8054CD"/><stop offset="1" stop-color="#4821A8"/></linearGradient><clipPath id="bclip0"><path fill="#fff" transform="rotate(90 168.5 168.5)" d="M0 0h68v337H0z"/></clipPath></defs></svg><svg fill="none" viewBox="0 0 30 30" id="done" xmlns="http://www.w3.org/2000/svg"><path d="M23.5 28L7 26.5l.5 2.5 16-1z" fill="#CBCCD0"/><path d="M7.073 29l-.537-2.653L2 3.929 28 2l-4.439 27H7.073z" stroke="#CBCCD0" stroke-width="2"/><path d="M9 25L6 9l18-1-2.5 18L9 25z" fill="url(#cpaint0_linear)"/><defs><linearGradient id="cpaint0_linear" x1="12.001" y1="7.999" x2="12.001" y2="26" gradientUnits="userSpaceOnUse"><stop stop-color="#8FE878"/><stop offset="1" stop-color="#40B621"/></linearGradient></defs></svg><svg fill="none" viewBox="0 0 48 48" id="duck" xmlns="http://www.w3.org/2000/svg"><g clip-path="url(#dclip0)"><path d="M12.62 27.281l.25-.042-.37-1.966c-4.737.897-10.807-3.997-10.867-4.046a.997.997 0 00-1.091-.114.996.996 0 00-.54.955c.01.148.264 3.67 1.755 7.86.88 2.475 2.016 4.672 3.371 6.526 1.715 2.352 3.791 4.158 6.169 5.37l.908-1.782a13.85 13.85 0 01-.384-.204l.798-12.557z" fill="#FFCE54"/><path d="M1.478 29.105c1.71.84 3.9 1.676 6.119 1.891l.192-1.99c-2.7-.261-5.454-1.639-7.062-2.577.196.824.442 1.728.751 2.676z" fill="#F6BB42"/><path d="M47.104 18.567l-1.175-2.937c-.153-.38-.52-.63-.929-.63h-4.2a1 1 0 00-.947.683l-.869 2.582a1.001 1.001 0 00.92 1.319l3.938.105 2.223.243a1.002 1.002 0 001.039-1.365z" fill="#DA4453"/><path d="M47.807 12.003a1 1 0 00-1.032-.383l-2.998.695-2.83.102a.999.999 0 00-.96.929l-.184 2.584c-.019.277.076.55.265.753.19.202.454.318.733.318H45a1 1 0 00.862-.494l2-3.406a1 1 0 00-.056-1.098z" fill="#ED5564"/><path d="M38.734 25.225c-1.404-1.575-2.616-2.936-2.499-5.044a1.57 1.57 0 00-.429-1.178c-.494-.523-1.331-.754-2.719-.754-1.375 0-3.162.23-4.74.434-1.29.165-2.506.322-3.237.322a2.33 2.33 0 01-.36-.02 1.353 1.353 0 00-1.257.447c-.447.502-.633 1.395-.604 2.897.004.241.015.476.028.691-4.023.143-8.059 1.077-11.22 2.609-1.692.82-3.044 1.76-4.02 2.792-1.1 1.166-1.66 2.385-1.66 3.621v.012c0 2.007 0 5.363 2.506 8.137 1.355 1.502 3.299 2.663 5.776 3.456 2.81.898 6.409 1.353 10.7 1.353 3.089 0 5.637-.253 7.797-.778 2.195-.531 3.936-1.331 5.321-2.441 1.355-1.086 2.363-2.492 2.995-4.181.589-1.572.874-3.405.874-5.603 0-3.126-1.728-5.063-3.252-6.772z" fill="#F6BB42"/><path d="M31 3c-6.066 0-11 4.935-11 11.001 0 6.065 4.935 11 11.001 11 6.065 0 11-4.936 11-11C42 7.935 37.065 3 31 3z" fill="#FFCE54"/><path d="M35 12.002a1 1 0 11-2 .001 1 1 0 012-.002z" fill="#000"/><path d="M32.524 31.447c-.74-1.211-1.998-2.091-3.45-2.415-.275-.06-.634-.091-1.097-.091-2.73 0-8.782 1.047-9.038 1.091a.998.998 0 00-.385 1.817l.433.29c-.477.13-.997.274-1.516.424a45.388 45.388 0 00-2.609.82c-1.236.445-1.67.727-1.854 1.214-.125.326-.082.694.114.981.069.103.158.19.26.261.183.126 4.57 3.073 12.939 3.073.16 0 .319 0 .482-.003 1.488-.019 2.764-.287 3.79-.797 1.29-.637 2.15-1.656 2.488-2.947a4.768 4.768 0 00-.557-3.718z" fill="#FFCE54"/></g><defs><clipPath id="dclip0"><path fill="#fff" d="M0 0h48v48H0z"/></clipPath></defs></svg><svg fill="none" viewBox="0 0 40 40" id="lifebuoy" xmlns="http://www.w3.org/2000/svg"><path d="M35 19.406l-.094-1.281.813-.813c3.593-3.593 3.593-9.468 0-13.03-3.594-3.594-9.438-3.594-13.032 0l-.812.812A8.52 8.52 0 0020.594 5L22 3.594c3.969-3.969 10.437-4 14.406 0 3.969 3.968 3.969 10.437 0 14.406L35 19.406zM18.156 5.126l-.812-.813C13.75.719 7.875.719 4.312 4.313c-3.624 3.562-3.624 9.437 0 13.03l.813.813a8.523 8.523 0 00-.094 1.282L3.625 18.03c-3.969-3.968-4-10.437 0-14.406 3.969-3.969 10.438-3.969 14.406 0l1.406 1.406c-.437 0-.875.032-1.28.094zM5 20.593l.094 1.281-.813.813C.688 26.28.688 32.156 4.25 35.718c3.594 3.594 9.438 3.594 13.031 0l.813-.812c.406.063.843.094 1.281.094l-1.406 1.406c-3.969 3.969-10.438 4-14.406.032-3.97-3.97-3.97-10.438.03-14.407L5 20.594zm16.844 14.281l.812.813c3.594 3.593 9.469 3.593 13.031 0a9.195 9.195 0 00-.03-13.032l-.813-.812c.062-.407.093-.844.093-1.282l1.407 1.407c3.968 3.968 4 10.437.03 14.406-3.968 3.969-10.437 3.969-14.405-.031l-1.407-1.407c.438.032.875 0 1.282-.062z" fill="#E4E7E7"/><path d="M20 0C8.969 0 0 8.969 0 20s8.937 20 20 20c11.031 0 20-8.969 20-20S31.031 0 20 0zm0 30a9.99 9.99 0 01-10-10 9.99 9.99 0 0110-10 9.99 9.99 0 0110 10 9.99 9.99 0 01-10 10z" fill="#E2574C"/><path d="M20 7.594C13.156 7.594 7.594 13.156 7.594 20S13.156 32.406 20 32.406 32.406 26.844 32.406 20 26.844 7.594 20 7.594zM20 30a9.99 9.99 0 01-10-10 9.99 9.99 0 0110-10 9.99 9.99 0 0110 10 9.99 9.99 0 01-10 10z" fill="#D95449"/><path d="M20 2.813C10.5 2.813 2.812 10.5 2.812 20S10.5 37.187 20 37.187 37.187 29.5 37.187 20 29.5 2.812 20 2.812zm0 33.124c-8.813 0-15.938-7.124-15.938-15.937 0-8.813 7.125-15.937 15.938-15.937S35.937 11.188 35.937 20c0 8.813-7.125 15.937-15.937 15.937z" fill="#E5685E"/><path d="M15.344 28.844a9.998 9.998 0 01-4.22-4.219l-7.218 7.25c1.188 1.594 2.594 3.031 4.219 4.219l7.219-7.25zm9.281-17.719a9.82 9.82 0 014.219 4.219l7.25-7.219a20.756 20.756 0 00-4.22-4.219l-7.249 7.219zm-20.719-3l7.219 7.219a9.82 9.82 0 014.219-4.219L8.125 3.906a20.76 20.76 0 00-4.219 4.219zm32.188 23.75l-7.22-7.219a9.82 9.82 0 01-4.218 4.219l7.219 7.219a20.755 20.755 0 004.219-4.22z" fill="#EFEFEF"/><path d="M26.406 9.375l-1.75 1.75a9.82 9.82 0 014.219 4.219l1.75-1.75c-1.063-1.719-2.5-3.188-4.219-4.219zm-15.281 15.25l-1.75 1.781c1.031 1.719 2.5 3.156 4.219 4.219l1.75-1.75a10.427 10.427 0 01-4.219-4.25zm13.531 4.25l1.75 1.75c1.719-1.031 3.156-2.5 4.219-4.219l-1.75-1.75a10.542 10.542 0 01-4.219 4.219zm-9.281-17.719l-1.781-1.781a12.958 12.958 0 00-4.219 4.219l1.75 1.75a10.168 10.168 0 014.25-4.188z" fill="#E6E6E6"/><path d="M6.813 28.969l-.907.906c1.156 1.625 2.563 3.063 4.219 4.219l.906-.907c-1.656-1.156-3.093-2.562-4.218-4.218zm26.375 0a15.932 15.932 0 01-4.22 4.218l.907.907a18.02 18.02 0 004.219-4.219l-.907-.906zM6.813 11.03a15.931 15.931 0 014.218-4.218l-.875-.875a18.023 18.023 0 00-4.218 4.218l.875.875zm26.375 0l.906-.906a18.02 18.02 0 00-4.219-4.219l-.906.907c1.656 1.125 3.062 2.562 4.218 4.218z" fill="#F1F1F1"/></svg><svg fill="none" viewBox="0 0 30 30" id="not-done" xmlns="http://www.w3.org/2000/svg"><path d="M23.5 28L7 26.5l.5 2.5 16-1z" fill="#fff"/><path d="M7.073 29l-.537-2.653L2 3.929 28 2l-4.439 27H7.073z" stroke="#fff" stroke-width="2"/></svg></svg>