<?xml version="1.0" encoding="utf-8"?><svg width="381" height="68" fill="none" xmlns="http://www.w3.org/2000/svg" viewBox="0 0 381 68"><g clip-path="url(#bclip0)"><mask id="ba" maskUnits="userSpaceOnUse" x="0" y="0" width="337" height="68"><path fill="#C4C4C4" d="M0 0h337v68H0z"/></mask><g mask="url(#ba)"><path fill-rule="evenodd" clip-rule="evenodd" d="M-18.966 58.795c1.091 3.725 2.385 5.959 4.77 7.413 2.384 1.454 5.86 2.129 13.216 2.386 7.357.257 59.593.098 111.6-.026 20.008-.124 48.786-.212 65.034-.684 16.248-.472 19.967-1.33 23.766-2.832 3.8-1.502 7.68-3.648 10.873-5.343 3.193-1.694 5.699-2.936 9.418-3.834 3.718-.897 8.649-1.45 18.471-2.555 9.822-1.105 24.535-2.762 35.69-4.168 11.156-1.405 18.755-2.559 22.877-3.14 4.123-.581 4.77-.591 5.255.126.485.717.808 2.16 1.617 2.712.808.551 2.101.212 2.829-.2.727-.413 4.032-.899 5.042-.712 1.011.187 2.523 1.046 3.774 1.108 4.981.247 4.981-30.382 0-30.135-1.251.061-2.763.92-3.774 1.107-1.01.187-4.315-.298-5.042-.71-.728-.413-2.021-.753-2.829-.201-.809.551-1.132 1.995-1.617 2.712-.485.716-1.132.707-5.255.126-4.122-.582-11.721-1.736-22.877-3.14-11.155-1.407-25.868-3.064-35.69-4.169-9.822-1.105-14.753-1.657-18.471-2.555-3.719-.898-6.224-2.14-9.418-3.834-3.193-1.695-7.073-3.841-10.873-5.343-3.799-1.502-7.518-2.36-23.766-2.832-16.248-.472-45.026-.56-65.034-.684C58.613-.735 6.377-.895-.98-.638c-7.356.257-10.832.932-13.216 2.386-2.385 1.454-3.679 3.688-4.77 7.413-3.41 11.64-3.41 37.994 0 49.634z" fill="url(#bpaint0_linear)"/></g></g><path stroke="#CBCCD0" d="M323.908 29.509l16-3m-12.047 7.481l16.279.02m-20.09 4.671l16.062 2.651"/><path d="M349.682 26.492a.904.904 0 01.775-.532l26.431-1.94a.759.759 0 01.519.137C378.239 24.786 381 27.51 381 36s-2.761 11.214-3.593 11.843a.759.759 0 01-.519.136l-26.431-1.94a.904.904 0 01-.775-.53C349.172 44.334 348 41.085 348 36s1.172-8.335 1.682-9.508z" fill="#4D25AB"/><path d="M377 43.5l-14.042.383L375.9 45.11l1.1-1.61zm-25 .5V28s2 3.097 2 8.258S352 44 352 44z" fill="#fff"/><defs><linearGradient id="bpaint0_linear" x1="-7.5" y1="16.002" x2="319" y2="16.002" gradientUnits="userSpaceOnUse"><stop stop-color="#8054CD"/><stop offset="1" stop-color="#4821A8"/></linearGradient><clipPath id="bclip0"><path fill="#fff" transform="rotate(90 168.5 168.5)" d="M0 0h68v337H0z"/></clipPath></defs></svg>