<?xml version="1.0" encoding="utf-8"?><svg width="48" height="48" fill="none" xmlns="http://www.w3.org/2000/svg" viewBox="0 0 48 48"><g clip-path="url(#dclip0)"><path d="M12.62 27.281l.25-.042-.37-1.966c-4.737.897-10.807-3.997-10.867-4.046a.997.997 0 00-1.091-.114.996.996 0 00-.54.955c.01.148.264 3.67 1.755 7.86.88 2.475 2.016 4.672 3.371 6.526 1.715 2.352 3.791 4.158 6.169 5.37l.908-1.782a13.85 13.85 0 01-.384-.204l.798-12.557z" fill="#FFCE54"/><path d="M1.478 29.105c1.71.84 3.9 1.676 6.119 1.891l.192-1.99c-2.7-.261-5.454-1.639-7.062-2.577.196.824.442 1.728.751 2.676z" fill="#F6BB42"/><path d="M47.104 18.567l-1.175-2.937c-.153-.38-.52-.63-.929-.63h-4.2a1 1 0 00-.947.683l-.869 2.582a1.001 1.001 0 00.92 1.319l3.938.105 2.223.243a1.002 1.002 0 001.039-1.365z" fill="#DA4453"/><path d="M47.807 12.003a1 1 0 00-1.032-.383l-2.998.695-2.83.102a.999.999 0 00-.96.929l-.184 2.584c-.019.277.076.55.265.753.19.202.454.318.733.318H45a1 1 0 00.862-.494l2-3.406a1 1 0 00-.056-1.098z" fill="#ED5564"/><path d="M38.734 25.225c-1.404-1.575-2.616-2.936-2.499-5.044a1.57 1.57 0 00-.429-1.178c-.494-.523-1.331-.754-2.719-.754-1.375 0-3.162.23-4.74.434-1.29.165-2.506.322-3.237.322a2.33 2.33 0 01-.36-.02 1.353 1.353 0 00-1.257.447c-.447.502-.633 1.395-.604 2.897.004.241.015.476.028.691-4.023.143-8.059 1.077-11.22 2.609-1.692.82-3.044 1.76-4.02 2.792-1.1 1.166-1.66 2.385-1.66 3.621v.012c0 2.007 0 5.363 2.506 8.137 1.355 1.502 3.299 2.663 5.776 3.456 2.81.898 6.409 1.353 10.7 1.353 3.089 0 5.637-.253 7.797-.778 2.195-.531 3.936-1.331 5.321-2.441 1.355-1.086 2.363-2.492 2.995-4.181.589-1.572.874-3.405.874-5.603 0-3.126-1.728-5.063-3.252-6.772z" fill="#F6BB42"/><path d="M31 3c-6.066 0-11 4.935-11 11.001 0 6.065 4.935 11 11.001 11 6.065 0 11-4.936 11-11C42 7.935 37.065 3 31 3z" fill="#FFCE54"/><path d="M35 12.002a1 1 0 11-2 .001 1 1 0 012-.002z" fill="#000"/><path d="M32.524 31.447c-.74-1.211-1.998-2.091-3.45-2.415-.275-.06-.634-.091-1.097-.091-2.73 0-8.782 1.047-9.038 1.091a.998.998 0 00-.385 1.817l.433.29c-.477.13-.997.274-1.516.424a45.388 45.388 0 00-2.609.82c-1.236.445-1.67.727-1.854 1.214-.125.326-.082.694.114.981.069.103.158.19.26.261.183.126 4.57 3.073 12.939 3.073.16 0 .319 0 .482-.003 1.488-.019 2.764-.287 3.79-.797 1.29-.637 2.15-1.656 2.488-2.947a4.768 4.768 0 00-.557-3.718z" fill="#FFCE54"/></g><defs><clipPath id="dclip0"><path fill="#fff" d="M0 0h48v48H0z"/></clipPath></defs></svg>