<?xml version="1.0" encoding="utf-8"?><svg width="40" height="40" fill="none" xmlns="http://www.w3.org/2000/svg" viewBox="0 0 40 40"><path d="M35 19.406l-.094-1.281.813-.813c3.593-3.593 3.593-9.468 0-13.03-3.594-3.594-9.438-3.594-13.032 0l-.812.812A8.52 8.52 0 0020.594 5L22 3.594c3.969-3.969 10.437-4 14.406 0 3.969 3.968 3.969 10.437 0 14.406L35 19.406zM18.156 5.126l-.812-.813C13.75.719 7.875.719 4.312 4.313c-3.624 3.562-3.624 9.437 0 13.03l.813.813a8.523 8.523 0 00-.094 1.282L3.625 18.03c-3.969-3.968-4-10.437 0-14.406 3.969-3.969 10.438-3.969 14.406 0l1.406 1.406c-.437 0-.875.032-1.28.094zM5 20.593l.094 1.281-.813.813C.688 26.28.688 32.156 4.25 35.718c3.594 3.594 9.438 3.594 13.031 0l.813-.812c.406.063.843.094 1.281.094l-1.406 1.406c-3.969 3.969-10.438 4-14.406.032-3.97-3.97-3.97-10.438.03-14.407L5 20.594zm16.844 14.281l.812.813c3.594 3.593 9.469 3.593 13.031 0a9.195 9.195 0 00-.03-13.032l-.813-.812c.062-.407.093-.844.093-1.282l1.407 1.407c3.968 3.968 4 10.437.03 14.406-3.968 3.969-10.437 3.969-14.405-.031l-1.407-1.407c.438.032.875 0 1.282-.062z" fill="#E4E7E7"/><path d="M20 0C8.969 0 0 8.969 0 20s8.937 20 20 20c11.031 0 20-8.969 20-20S31.031 0 20 0zm0 30a9.99 9.99 0 01-10-10 9.99 9.99 0 0110-10 9.99 9.99 0 0110 10 9.99 9.99 0 01-10 10z" fill="#E2574C"/><path d="M20 7.594C13.156 7.594 7.594 13.156 7.594 20S13.156 32.406 20 32.406 32.406 26.844 32.406 20 26.844 7.594 20 7.594zM20 30a9.99 9.99 0 01-10-10 9.99 9.99 0 0110-10 9.99 9.99 0 0110 10 9.99 9.99 0 01-10 10z" fill="#D95449"/><path d="M20 2.813C10.5 2.813 2.812 10.5 2.812 20S10.5 37.187 20 37.187 37.187 29.5 37.187 20 29.5 2.812 20 2.812zm0 33.124c-8.813 0-15.938-7.124-15.938-15.937 0-8.813 7.125-15.937 15.938-15.937S35.937 11.188 35.937 20c0 8.813-7.125 15.937-15.937 15.937z" fill="#E5685E"/><path d="M15.344 28.844a9.998 9.998 0 01-4.22-4.219l-7.218 7.25c1.188 1.594 2.594 3.031 4.219 4.219l7.219-7.25zm9.281-17.719a9.82 9.82 0 014.219 4.219l7.25-7.219a20.756 20.756 0 00-4.22-4.219l-7.249 7.219zm-20.719-3l7.219 7.219a9.82 9.82 0 014.219-4.219L8.125 3.906a20.76 20.76 0 00-4.219 4.219zm32.188 23.75l-7.22-7.219a9.82 9.82 0 01-4.218 4.219l7.219 7.219a20.755 20.755 0 004.219-4.22z" fill="#EFEFEF"/><path d="M26.406 9.375l-1.75 1.75a9.82 9.82 0 014.219 4.219l1.75-1.75c-1.063-1.719-2.5-3.188-4.219-4.219zm-15.281 15.25l-1.75 1.781c1.031 1.719 2.5 3.156 4.219 4.219l1.75-1.75a10.427 10.427 0 01-4.219-4.25zm13.531 4.25l1.75 1.75c1.719-1.031 3.156-2.5 4.219-4.219l-1.75-1.75a10.542 10.542 0 01-4.219 4.219zm-9.281-17.719l-1.781-1.781a12.958 12.958 0 00-4.219 4.219l1.75 1.75a10.168 10.168 0 014.25-4.188z" fill="#E6E6E6"/><path d="M6.813 28.969l-.907.906c1.156 1.625 2.563 3.063 4.219 4.219l.906-.907c-1.656-1.156-3.093-2.562-4.218-4.218zm26.375 0a15.932 15.932 0 01-4.22 4.218l.907.907a18.02 18.02 0 004.219-4.219l-.907-.906zM6.813 11.03a15.931 15.931 0 014.218-4.218l-.875-.875a18.023 18.023 0 00-4.218 4.218l.875.875zm26.375 0l.906-.906a18.02 18.02 0 00-4.219-4.219l-.906.907c1.656 1.125 3.062 2.562 4.218 4.218z" fill="#F1F1F1"/></svg>